<svg width="18" height="21" viewBox="0 0 18 21" fill="none" xmlns="http://www.w3.org/2000/svg">
<path fill-rule="evenodd" clip-rule="evenodd" d="M6.01591 2.64094C6.19321 1.15337 7.45823 0 8.99244 0C10.5267 0 11.7917 1.15337 11.969 2.64094C14.4698 3.77546 16.2093 6.29555 16.2093 9.22222V14.2399L17.8786 17.5494C18.2141 18.2145 17.731 19 16.9865 19H11.8196C11.4081 20.1652 10.2977 21 8.99244 21C7.68719 21 6.57678 20.1652 6.16524 19H0.998365C0.253873 19 -0.22917 18.2145 0.106305 17.5494L1.77557 14.2399V9.22222C1.77557 6.29555 3.5151 3.77546 6.01591 2.64094ZM14.318 14.9286L15.3628 17H2.62209L3.66689 14.9286C3.73737 14.7888 3.77409 14.6345 3.77409 14.478V9.22222C3.77409 6.33807 6.11042 4 8.99244 4C11.8745 4 14.2108 6.33807 14.2108 9.22222V14.478C14.2108 14.6345 14.2475 14.7888 14.318 14.9286Z" fill="#92929D"/>
</svg>
