<svg width="20" height="20" viewBox="0 0 20 20" fill="none" xmlns="http://www.w3.org/2000/svg">
<path fill-rule="evenodd" clip-rule="evenodd" d="M3.90244 14.6977C0.921436 11.7167 0.921436 6.8835 3.90244 3.9025C6.88344 0.921498 11.7166 0.921498 14.6976 3.9025C17.4224 6.62729 17.6566 10.8996 15.4002 13.8903L18.412 16.9021C19.1976 17.6878 18.0191 18.8663 17.2335 18.0807L14.2577 15.1049C11.2586 17.6718 6.74089 17.5361 3.90244 14.6977ZM13.5191 5.08101C11.189 2.75088 7.41108 2.75088 5.08095 5.08101C2.75082 7.41114 2.75082 11.189 5.08095 13.5192C7.41108 15.8493 11.189 15.8493 13.5191 13.5192C15.8492 11.189 15.8492 7.41114 13.5191 5.08101Z" fill="#282828"/>
</svg>
