<svg width="24" height="24" viewBox="0 0 24 24" fill="none" xmlns="http://www.w3.org/2000/svg">
<path d="M18.0001 2V10M22.0001 6H14.0001M2.50005 6C2.50005 4.46 2.50005 3.69 2.84705 3.124C3.04105 2.807 3.30706 2.541 3.62406 2.347C4.18906 2 4.96005 2 6.50005 2C8.04005 2 8.81006 2 9.37606 2.347C9.69306 2.541 9.95906 2.807 10.1531 3.124C10.5001 3.689 10.5001 4.46 10.5001 6C10.5001 7.54 10.5001 8.31 10.1531 8.876C9.95906 9.193 9.69306 9.459 9.37606 9.653C8.81106 10 8.04005 10 6.50005 10C4.96005 10 4.19006 10 3.62406 9.653C3.30729 9.45904 3.04101 9.19277 2.84705 8.876C2.50005 8.311 2.50005 7.54 2.50005 6ZM3.78206 14.782C4.82906 13.735 5.35206 13.212 5.97206 13.062C6.31912 12.9786 6.68099 12.9786 7.02805 13.062C7.64805 13.212 8.17106 13.735 9.21806 14.782C10.2651 15.829 10.7881 16.352 10.9381 16.972C11.02 17.3192 11.02 17.6808 10.9381 18.028C10.7881 18.648 10.2651 19.172 9.21806 20.218C8.17106 21.264 7.64805 21.788 7.02805 21.938C6.68099 22.0214 6.31912 22.0214 5.97206 21.938C5.35206 21.788 4.82906 21.265 3.78206 20.218C2.73505 19.171 2.21206 18.648 2.06206 18.028C1.97866 17.6809 1.97866 17.3191 2.06206 16.972C2.21206 16.352 2.73505 15.828 3.78206 14.782ZM14.0001 18C14.0001 16.46 14.0001 15.69 14.3471 15.124C14.5411 14.807 14.8071 14.541 15.1241 14.347C15.6891 14 16.4601 14 18.0001 14C19.5401 14 20.3101 14 20.8771 14.347C21.1931 14.541 21.4591 14.807 21.6531 15.124C22.0001 15.689 22.0001 16.46 22.0001 18C22.0001 19.54 22.0001 20.31 21.6531 20.877C21.459 21.1931 21.1931 21.4589 20.8771 21.653C20.3101 22 19.5401 22 18.0001 22C16.4601 22 15.6901 22 15.1241 21.653C14.8074 21.4593 14.5411 21.1934 14.3471 20.877C14.0001 20.31 14.0001 19.54 14.0001 18Z" stroke="#5D5D5D" stroke-width="1.5" stroke-linecap="round" stroke-linejoin="round"/>
</svg>
