<svg width="24" height="24" viewBox="0 0 24 24" fill="none" xmlns="http://www.w3.org/2000/svg">
<path d="M17.9996 2V10M21.9996 6H13.9996M2.49957 6C2.49957 4.46 2.49957 3.69 2.84657 3.124C3.04057 2.807 3.30657 2.541 3.62357 2.347C4.18857 2 4.95957 2 6.49957 2C8.03957 2 8.80957 2 9.37557 2.347C9.69257 2.541 9.95857 2.807 10.1526 3.124C10.4996 3.689 10.4996 4.46 10.4996 6C10.4996 7.54 10.4996 8.31 10.1526 8.876C9.95857 9.193 9.69257 9.459 9.37557 9.653C8.81057 10 8.03957 10 6.49957 10C4.95957 10 4.18957 10 3.62357 9.653C3.3068 9.45904 3.04052 9.19277 2.84657 8.876C2.49957 8.311 2.49957 7.54 2.49957 6ZM3.78157 14.782C4.82857 13.735 5.35157 13.212 5.97157 13.062C6.31863 12.9786 6.68051 12.9786 7.02757 13.062C7.64757 13.212 8.17057 13.735 9.21757 14.782C10.2646 15.829 10.7876 16.352 10.9376 16.972C11.0195 17.3192 11.0195 17.6808 10.9376 18.028C10.7876 18.648 10.2646 19.172 9.21757 20.218C8.17057 21.264 7.64757 21.788 7.02757 21.938C6.68051 22.0214 6.31863 22.0214 5.97157 21.938C5.35157 21.788 4.82857 21.265 3.78157 20.218C2.73457 19.171 2.21157 18.648 2.06157 18.028C1.97818 17.6809 1.97818 17.3191 2.06157 16.972C2.21157 16.352 2.73457 15.828 3.78157 14.782ZM13.9996 18C13.9996 16.46 13.9996 15.69 14.3466 15.124C14.5406 14.807 14.8066 14.541 15.1236 14.347C15.6886 14 16.4596 14 17.9996 14C19.5396 14 20.3096 14 20.8766 14.347C21.1926 14.541 21.4586 14.807 21.6526 15.124C21.9996 15.689 21.9996 16.46 21.9996 18C21.9996 19.54 21.9996 20.31 21.6526 20.877C21.4585 21.1931 21.1926 21.4589 20.8766 21.653C20.3096 22 19.5396 22 17.9996 22C16.4596 22 15.6896 22 15.1236 21.653C14.8069 21.4593 14.5406 21.1934 14.3466 20.877C13.9996 20.31 13.9996 19.54 13.9996 18Z" stroke="#3A0F6F" stroke-width="1.5" stroke-linecap="round" stroke-linejoin="round"/>
</svg>
