<svg width="22" height="24" viewBox="0 0 22 24" fill="none" xmlns="http://www.w3.org/2000/svg">
<path d="M0.5 8.16667V22.1667C0.5 22.4761 0.622916 22.7728 0.841709 22.9916C1.0605 23.2104 1.35725 23.3333 1.66667 23.3333H7.5C7.80942 23.3333 8.10616 23.2104 8.32496 22.9916C8.54375 22.7728 8.66667 22.4761 8.66667 22.1667V14H13.3333V22.1667C13.3333 22.4761 13.4562 22.7728 13.675 22.9916C13.8938 23.2104 14.1906 23.3333 14.5 23.3333H20.3333C20.6428 23.3333 20.9395 23.2104 21.1583 22.9916C21.3771 22.7728 21.5 22.4761 21.5 22.1667V8.16667C21.5 7.98555 21.4578 7.80692 21.3768 7.64492C21.2958 7.48292 21.1782 7.34201 21.0333 7.23334L11.7 0.233333C11.4981 0.0818743 11.2524 0 11 0C10.7476 0 10.5019 0.0818743 10.3 0.233333L0.966667 7.23334C0.821771 7.34201 0.704167 7.48292 0.623168 7.64492C0.542169 7.80692 0.5 7.98555 0.5 8.16667ZM2.83333 8.75L11 2.625L19.1667 8.75V21H15.6667V12.8333C15.6667 12.5239 15.5437 12.2272 15.325 12.0084C15.1062 11.7896 14.8094 11.6667 14.5 11.6667H7.5C7.19058 11.6667 6.89383 11.7896 6.67504 12.0084C6.45625 12.2272 6.33333 12.5239 6.33333 12.8333V21H2.83333V8.75Z" fill="#FF671F"/>
</svg>
